<svg width="142" height="133" viewBox="0 0 142 133" fill="none" xmlns="http://www.w3.org/2000/svg">
<path d="M141.977 130.909V0H49.9318V28.6364H106.438V51.1364H55.5568V79.7727H106.438V130.909H141.977Z" fill="#030303"/>
<path d="M35.0284 0H0V89.7443C0.0426149 98.2671 2.1946 105.767 6.45596 112.244C10.6747 118.679 16.5128 123.707 23.9702 127.33C31.3849 130.909 39.929 132.699 49.6023 132.699C57.9972 132.699 65.6676 131.25 72.6136 128.352C79.5597 125.412 85.0994 120.81 89.233 114.545C93.3665 108.239 95.4119 100.057 95.3693 90H59.8295C59.7017 93.2812 59.1477 96.0511 58.1676 98.3097C57.1449 100.568 55.7386 102.273 53.9489 103.423C52.1165 104.531 49.9006 105.085 47.3011 105.085C44.6591 105.085 42.4432 104.51 40.6534 103.359C38.821 102.209 37.4361 100.504 36.4986 98.2457C35.5611 95.9446 35.071 93.1108 35.0284 89.7443V0Z" fill="#030303"/>
</svg>
